/vscmnt/brussel_pixiu_data/_data_brussel/112/vsc11236/PredSimResults/SUBJ10opt3D/weighted-trackIG/worker_05.mot
version=1
nRows=5
nColumns=50
inDegrees=yes
endheader
                time	         pelvis_tilt	         pelvis_list	     pelvis_rotation	           pelvis_tx	           pelvis_ty	           pelvis_tz	       hip_flexion_r	     hip_adduction_r	      hip_rotation_r	        knee_angle_r	       ankle_angle_r	         mtp_angle_r	       hip_flexion_l	     hip_adduction_l	      hip_rotation_l	        knee_angle_l	       ankle_angle_l	         mtp_angle_l	    lumbar_extension	      lumbar_bending	     lumbar_rotation	 ercspn_r/activation	 intobl_r/activation	 extobl_r/activation	    abd_r/activation	    add_r/activation	hamstrings_r/activation	bifemsh_r/activation	glut_max_r/activation	iliopsoas_r/activation	rect_fem_r/activation	  vasti_r/activation	gastroc_r/activation	 soleus_r/activation	tib_ant_r/activation	 ercspn_l/activation	 intobl_l/activation	 extobl_l/activation	    abd_l/activation	    add_l/activation	hamstrings_l/activation	bifemsh_l/activation	glut_max_l/activation	iliopsoas_l/activation	rect_fem_l/activation	  vasti_l/activation	gastroc_l/activation	 soleus_l/activation	tib_ant_l/activation	
          0.00000000	         -5.07322512	         -1.04590189	          6.50881524	          0.00000000	          0.82291328	         -0.01414807	         30.63236404	         -1.49033272	         -5.95356681	         -4.44897377	          3.14030871	          0.25826269	        -13.89644663	         -0.37786904	          0.28226912	         -5.81759366	          9.32837274	         26.32273080	         -6.15968465	         -0.81286221	         -7.03445951	          0.12550428	          0.16049581	          0.00999999	          0.00999999	          0.14010698	          0.14541729	          0.19493598	          0.02859137	          0.12877366	          0.00999999	          0.00999999	          0.01357379	          0.00999999	          0.27934601	          0.04937553	          0.00999999	          0.00999999	          0.07452411	          0.00999999	          0.01253624	          0.27235224	          0.02989785	          0.56069517	          0.00999999	          0.00999999	          0.36103417	          0.28407184	          0.02529496	
          0.01201528	         -5.12089068	         -1.01894002	          6.69335437	          0.01560378	          0.82116063	         -0.01367417	         30.87405763	         -1.36175523	         -5.82153294	         -6.48069120	          2.79660624	          0.25912787	        -14.06303899	         -0.51619758	         -0.01441631	         -7.39327575	          8.83050269	         28.02305286	         -5.91427594	         -0.29372547	         -7.43054345	          0.10915988	          0.13371813	          0.00999999	          0.00999999	          0.25511520	          0.12254514	          0.16241219	          0.06765091	          0.10728862	          0.00999999	          0.00999999	          0.01649005	          0.01231734	          0.30213185	          0.10062901	          0.00999999	          0.00999999	          0.06209025	          0.04433739	          0.01764663	          0.22691205	          0.02490959	          0.52883510	          0.00999999	          0.00999999	          0.33249388	          0.27743872	          0.02107466	
          0.02403056	         -5.15542443	         -1.01984542	          6.85252725	          0.03165915	          0.81962490	         -0.01313716	         30.90147117	         -1.24846356	         -5.55430766	         -8.42481563	          2.40972622	          0.24427738	        -14.09005197	         -0.69816080	         -0.32950256	         -9.27728533	          8.18255232	         29.76191455	         -5.62973383	          0.26252067	         -7.79931823	          0.09094727	          0.11140814	          0.00999999	          0.00999999	          0.21255090	          0.10231213	          0.13531478	          0.12047539	          0.08938822	          0.00999999	          0.00999999	          0.01373879	          0.01026227	          0.37286097	          0.11793128	          0.00999999	          0.00999999	          0.05173090	          0.07753314	          0.01470242	          0.18905326	          0.02075359	          0.44588375	          0.00999999	          0.00999999	          0.29466947	          0.26503634	          0.01755849	
          0.03604583	         -5.17898844	         -1.03737415	          6.97683221	          0.04797483	          0.81842059	         -0.01246149	         30.72968954	         -1.12115195	         -5.33565307	        -10.04309619	          1.92093751	          0.23422951	        -13.93175303	         -0.91420531	         -0.67357937	        -11.51120406	          7.33552627	         31.49698880	         -5.32815519	          0.82733489	         -8.13419048	          0.10306400	          0.09282042	          0.00999999	          0.04658870	          0.18916516	          0.08929104	          0.11273839	          0.13876234	          0.07447438	          0.00999999	          0.00999999	          0.01144656	          0.00999999	          0.43272904	          0.13058296	          0.00999999	          0.00999999	          0.04309993	          0.06479872	          0.01613188	          0.15751096	          0.01729099	          0.37149097	          0.00999999	          0.00999999	          0.24550580	          0.24728567	          0.01462897	
          0.04806111	         -5.19311908	         -1.05617073	          7.06650291	          0.06432214	          0.81764181	         -0.01165336	         30.46791436	         -0.98608105	         -5.22877028	        -11.52563942	          1.45972283	          0.22075857	        -13.54945803	         -1.14849292	         -1.04882038	        -14.12202322	          6.26854962	         33.11836035	         -5.03393957	          1.38349143	         -8.42968445	          0.10936321	          0.07733394	          0.00999999	          0.09144647	          0.21888163	          0.07464041	          0.09392873	          0.14729754	          0.06204881	          0.00999999	          0.00999999	          0.00999999	          0.00999999	          0.46000164	          0.16047095	          0.00999999	          0.00999999	          0.03590899	          0.06707727	          0.01961900	          0.13123129	          0.01440610	          0.30951013	          0.00999999	          0.00999999	          0.20454476	          0.22507043	          0.01218822	
